<?xml version="1.0" standalone="no"?>
<!DOCTYPE svg PUBLIC "-//W3C//DTD SVG 20010904//EN"
 "http://www.w3.org/TR/2001/REC-SVG-20010904/DTD/svg10.dtd">
<svg version="1.0" xmlns="http://www.w3.org/2000/svg"
 width="200.000000pt" height="200.000000pt" viewBox="0 0 200.000000 200.000000"
 preserveAspectRatio="xMidYMid meet">
<metadata>
Created by potrace 1.12, written by Peter Selinger 2001-2015
</metadata>
<g transform="translate(0.000000,200.000000) scale(0.100000,-0.100000)"
fill="#000000" stroke="none">
<path d="M860 1946 c-8 -8 -45 -20 -83 -26 -37 -6 -92 -22 -122 -35 -58 -27
-75 -30 -75 -16 0 5 -13 3 -30 -5 -34 -17 -41 -39 -10 -31 11 3 18 1 14 -4 -3
-5 -12 -9 -19 -9 -8 0 -19 -9 -25 -20 -6 -11 -19 -20 -30 -20 -10 0 -22 -4
-25 -10 -3 -5 -1 -10 6 -10 7 0 -2 -11 -21 -25 -18 -13 -37 -22 -41 -19 -5 3
-19 0 -31 -6 -23 -11 -23 -11 1 9 12 12 27 18 32 15 5 -3 9 0 9 5 0 6 17 27
38 47 36 35 36 36 7 21 -34 -17 -195 -179 -195 -195 0 -15 42 0 48 16 2 8 -3
10 -15 5 -17 -6 -17 -5 1 16 14 15 22 18 27 10 4 -8 11 -5 18 10 7 12 17 18
23 15 7 -5 5 -11 -6 -20 -10 -7 -18 -18 -20 -26 -1 -7 -5 -19 -9 -25 -13 -21
27 -15 53 7 25 22 35 26 25 10 -12 -19 8 -10 42 20 19 17 39 27 45 24 6 -4 16
0 23 9 6 9 23 19 37 22 24 6 26 4 21 -15 -6 -21 -4 -21 18 -9 26 15 101 20 93
7 -9 -14 7 -8 34 12 19 15 39 20 76 19 28 -1 70 2 92 6 57 10 67 -10 14 -26
-35 -11 -43 -10 -51 2 -7 11 -9 9 -9 -8 0 -13 -4 -23 -9 -23 -5 0 -13 -9 -16
-20 -4 -11 -10 -18 -15 -15 -15 9 -60 -6 -53 -18 4 -6 7 -21 8 -34 0 -17 -5
-23 -21 -23 -12 0 -24 -7 -28 -15 -3 -8 -11 -12 -18 -10 -9 4 -18 -10 -27 -41
-8 -26 -27 -61 -43 -79 -15 -18 -28 -39 -28 -47 0 -8 -10 -20 -22 -27 -22 -11
-22 -11 5 -6 15 3 27 1 27 -3 0 -12 -34 -42 -48 -42 -7 0 -12 -5 -12 -11 0
-18 43 1 68 29 49 59 74 102 79 141 3 22 12 46 20 52 15 13 74 19 66 7 -2 -5
-11 -8 -19 -8 -8 0 -14 -9 -14 -21 0 -11 -4 -18 -9 -14 -15 9 -22 -12 -26 -78
l-4 -62 29 33 c29 32 50 41 50 22 0 -5 7 -7 15 -4 8 4 15 1 15 -6 0 -6 5 -8
10 -5 6 4 8 10 5 15 -3 4 4 10 16 13 11 3 19 11 18 19 -3 24 1 41 8 35 3 -4
12 -2 20 4 10 9 13 8 13 -2 0 -8 6 -5 15 7 9 12 14 14 15 6 0 -7 -12 -25 -27
-40 -16 -15 -24 -24 -18 -20 18 15 22 7 20 -43 -1 -28 1 -46 5 -39 4 6 11 11
16 10 5 -1 10 4 13 11 2 7 -1 9 -8 5 -17 -11 -13 1 13 42 14 20 28 49 31 65 4
15 11 27 15 27 5 0 11 9 15 19 3 10 17 22 30 25 14 4 25 13 25 21 0 8 5 15 10
15 6 0 10 8 10 17 0 9 7 25 17 35 12 14 13 18 3 18 -11 0 -11 3 -2 12 17 17
15 28 -5 28 -14 0 -15 2 -5 9 8 4 12 12 10 17 -1 5 12 8 30 8 17 -1 32 3 32 7
0 5 -7 9 -16 9 -14 0 -14 3 -4 15 12 14 15 13 32 -5 10 -11 25 -20 33 -20 8 0
15 -5 15 -10 0 -7 -7 -7 -20 0 -16 9 -22 8 -26 -5 -4 -8 -12 -14 -19 -13 -8 2
-15 -1 -17 -6 -5 -16 33 -15 68 2 19 8 34 21 34 28 0 18 -28 37 -45 30 -20 -7
-19 -4 4 22 27 32 86 27 74 -5 -5 -12 -3 -14 7 -8 10 6 12 4 7 -9 -5 -12 -3
-16 5 -13 7 2 12 10 10 17 -1 6 7 14 18 17 11 3 20 10 20 15 0 6 -7 8 -15 5
-7 -3 -24 3 -37 13 -13 11 -18 19 -11 20 6 0 14 -4 18 -10 3 -6 15 -6 30 0 19
7 23 6 19 -4 -6 -17 12 -31 21 -16 7 12 26 14 24 3 -3 -21 2 -33 16 -33 7 0
18 -6 22 -13 6 -11 13 -11 31 -1 l23 12 -28 7 c-15 5 -31 8 -35 7 -5 -1 -8 3
-8 9 0 6 9 8 23 3 33 -10 74 -33 60 -34 -15 0 -18 -30 -3 -30 6 0 13 7 16 15
4 8 10 12 15 9 5 -3 4 -14 -2 -25 -17 -33 -1 -35 28 -3 22 24 28 26 31 12 2
-12 13 -16 38 -15 32 2 50 17 20 17 -8 0 -18 5 -21 10 -11 18 24 11 42 -8 10
-11 27 -22 38 -26 34 -12 -22 41 -89 85 -48 31 -66 37 -97 34 -23 -2 -42 1
-46 8 -5 7 -17 19 -27 27 -18 14 -19 13 -14 -2 4 -9 1 -19 -6 -21 -9 -4 -12 1
-9 12 6 22 -39 57 -83 66 -28 6 -122 16 -156 16 -10 0 -18 4 -18 10 0 12 -87
12 -95 0 -8 -14 -60 -6 -87 13 -28 20 -89 21 -108 2z"/>
<path d="M1595 1660 c3 -6 -1 -13 -10 -16 -9 -4 -22 -19 -30 -35 -14 -26 -55
-38 -55 -16 0 5 -7 7 -15 3 -8 -3 -15 -1 -15 5 0 6 -7 8 -16 5 -8 -3 -12 -2
-9 4 8 13 -1 13 -27 -1 -18 -10 -19 -8 -13 13 6 22 6 22 -9 4 -9 -11 -16 -25
-16 -32 0 -7 -9 -15 -19 -19 -12 -4 -18 -12 -14 -21 3 -9 0 -13 -8 -11 -8 2
-11 2 -6 0 4 -3 5 -8 2 -13 -3 -4 4 -6 15 -3 11 3 20 9 20 14 0 5 5 9 12 9 6
0 3 -9 -7 -20 -15 -17 -16 -22 -4 -36 12 -14 14 -14 26 2 12 16 13 16 13 -7 1
-23 1 -23 15 -5 15 19 15 19 15 -4 0 -23 0 -23 15 -4 13 17 14 17 15 2 0 -21
11 -23 29 -5 8 6 11 7 8 1 -7 -13 45 -13 55 0 4 6 16 5 30 -1 l23 -12 -22 0
c-31 -1 -29 -16 2 -16 17 0 25 6 25 18 0 18 25 24 35 7 10 -15 52 -12 69 6 9
8 13 20 10 26 -5 7 -2 8 5 3 7 -4 11 -15 8 -24 -2 -11 1 -18 9 -18 8 0 14 8
14 17 0 9 5 21 12 28 9 9 7 12 -12 12 -19 0 -21 3 -12 12 16 16 15 28 -3 28
-9 0 -15 9 -15 23 0 21 -35 54 -42 39 -2 -4 -20 -21 -41 -36 -25 -20 -35 -23
-31 -12 5 13 2 15 -12 10 -11 -4 -24 -11 -31 -16 -13 -11 -33 -3 -33 13 0 6 4
8 9 4 5 -3 12 -1 16 5 3 5 1 10 -6 10 -7 0 2 13 20 29 26 23 29 30 16 35 -9 3
-13 2 -10 -4z"/>
<path d="M728 474 c-3 -3 -4 -23 -1 -45 l6 -40 -49 26 c-52 28 -74 27 -71 -4
1 -12 10 -21 26 -24 23 -5 24 -4 8 8 -10 7 -14 16 -9 19 13 8 42 -3 42 -17 0
-6 3 -7 6 -4 13 13 64 -34 64 -58 0 -18 -4 -23 -15 -19 -9 4 -15 0 -15 -10 0
-20 -16 -21 -24 -1 -3 8 0 15 6 15 7 0 6 5 -2 15 -7 9 -19 14 -26 11 -7 -3
-16 0 -20 5 -4 7 -10 7 -17 0 -8 -8 -8 -14 1 -23 21 -21 13 -32 -10 -12 -13
12 -18 13 -13 4 7 -12 6 -13 -6 -4 -18 14 -91 26 -84 13 4 -5 12 -9 20 -9 8 0
17 -4 20 -10 11 -18 -11 -11 -51 16 -41 28 -75 36 -96 23 -10 -7 -10 -9 0 -9
7 0 12 -8 10 -17 -2 -13 11 -22 54 -37 32 -11 56 -22 53 -24 -3 -3 3 -11 13
-18 16 -12 15 -13 -4 -14 -12 0 -24 -6 -27 -12 -7 -19 45 -17 60 2 6 8 15 12
19 7 4 -4 1 -7 -7 -7 -11 0 -11 -2 1 -10 20 -13 31 -12 27 1 -1 6 4 14 11 16
7 3 11 -1 10 -9 -2 -8 5 -12 17 -10 16 2 17 1 5 -7 -8 -6 -24 -11 -35 -12 -17
-1 -16 -2 5 -9 18 -5 29 -3 40 9 18 19 54 21 72 3 15 -15 32 -16 22 -1 -4 7 1
10 12 7 13 -2 19 -12 18 -31 0 -17 5 -27 14 -27 9 0 13 7 9 19 -3 15 0 17 17
14 20 -5 20 -5 -2 11 -12 10 -35 18 -50 19 -26 2 -42 13 -42 30 0 4 8 3 18 -2
10 -5 30 -11 43 -13 24 -3 59 -32 90 -72 13 -18 12 -19 -3 -13 -11 4 -25 -1
-35 -12 -10 -10 -25 -20 -33 -23 -8 -3 2 -8 24 -12 25 -5 43 -3 50 4 8 8 6 9
-6 5 -20 -8 -25 10 -7 21 6 3 22 -5 35 -19 25 -27 52 -35 139 -42 28 -2 64 -8
82 -13 17 -6 33 -9 35 -7 2 2 22 5 43 6 22 1 58 11 79 21 22 10 46 18 53 18 7
0 13 5 13 10 0 6 5 10 11 10 7 0 49 36 94 79 46 44 105 92 132 108 28 15 62
42 77 60 27 32 27 32 4 28 -13 -3 -28 -12 -34 -20 -9 -13 -13 -13 -17 -3 -4
10 -6 10 -6 1 -1 -7 -6 -13 -13 -13 -6 0 -23 -10 -36 -22 l-25 -23 12 22 c6
12 20 28 32 36 17 13 18 15 4 21 -9 3 -25 1 -36 -4 -15 -8 -19 -7 -19 5 0 8
-2 15 -5 15 -14 0 -64 -31 -68 -42 -4 -10 -7 -11 -18 0 -9 9 -10 12 -1 12 7 0
12 5 12 10 0 23 -29 8 -32 -17 -4 -31 -23 -41 -32 -17 -7 18 19 54 39 54 7 0
15 7 19 15 14 36 -28 8 -68 -47 -15 -20 -38 -39 -51 -42 -27 -7 -33 -23 -12
-28 10 -2 9 -8 -6 -23 -17 -17 -19 -17 -14 -2 7 18 -7 24 -18 7 -8 -14 -33 -1
-40 21 -4 11 -11 16 -17 13 -7 -5 -8 -2 -3 6 5 9 14 5 31 -15 13 -16 24 -26
25 -24 0 2 2 13 4 25 3 15 -3 23 -23 31 -23 9 -18 10 30 7 54 -3 81 7 58 21
-5 3 -10 1 -10 -6 0 -10 -3 -10 -11 -2 -14 14 -3 33 18 33 9 0 13 6 10 14 -3
8 -1 17 6 20 21 8 -24 37 -47 30 -31 -10 -31 -12 -6 -34 17 -14 19 -20 8 -20
-11 0 -14 -7 -10 -25 3 -16 0 -25 -8 -25 -7 0 -10 7 -7 15 4 8 1 17 -5 21 -7
4 -6 9 2 14 15 9 -9 24 -55 33 -16 4 -24 4 -17 1 8 -4 5 -12 -12 -25 -27 -21
-41 -25 -30 -7 5 7 3 8 -5 3 -8 -4 -10 -17 -7 -34 5 -17 4 -21 -2 -12 -8 11
-11 11 -16 0 -8 -18 0 21 9 43 5 12 2 20 -9 24 -20 8 -35 -4 -19 -14 14 -9 6
-52 -9 -52 -6 0 -8 9 -5 20 3 11 1 17 -4 14 -6 -3 -17 0 -26 8 -14 11 -15 10
-8 -12 4 -14 8 -34 9 -45 1 -11 8 -27 17 -35 15 -14 15 -18 3 -35 -13 -17 -19
-14 -15 8 1 4 -4 17 -9 28 -12 22 -32 17 -23 -7 3 -9 0 -14 -7 -12 -25 6 -21
-22 4 -32 14 -5 26 -15 26 -21 0 -6 6 -9 13 -6 10 4 13 -2 9 -21 l-5 -25 -18
22 c-11 13 -19 20 -19 16 0 -4 -10 5 -21 20 -21 25 -21 29 -6 59 14 30 14 33
-2 43 -9 5 -20 10 -24 11 -5 0 -15 9 -24 19 -8 10 -12 12 -8 6 4 -8 -1 -13
-12 -13 -14 0 -12 -5 12 -24 24 -19 33 -22 44 -13 10 8 8 0 -4 -21 -16 -27
-17 -36 -7 -52 7 -12 8 -20 2 -20 -5 0 -10 5 -10 10 0 6 -8 10 -17 10 -14 0
-15 2 -5 9 24 15 -33 19 -67 5 -17 -7 -31 -9 -31 -4 0 6 7 10 15 10 8 0 15 5
15 11 0 6 -6 9 -14 6 -7 -3 -23 1 -35 9 -12 9 -33 17 -48 18 -17 2 -30 11 -35
26 -7 18 -5 21 8 16 10 -4 14 -2 11 6 -2 7 -16 12 -31 10 -24 -3 -26 0 -26 33
0 21 5 35 13 35 7 1 5 6 -6 14 -14 11 -15 15 -5 19 7 3 8 6 2 6 -6 1 -13 -2
-16 -5z"/>
</g>
</svg>
